<?xml version="1.0" encoding="UTF-8"?>
<!DOCTYPE svg PUBLIC "-//W3C//DTD SVG 1.1//EN" "http://www.w3.org/Graphics/SVG/1.1/DTD/svg11.dtd">
<svg version="1.1" xmlns="http://www.w3.org/2000/svg" xmlns:xlink="http://www.w3.org/1999/xlink" x="0" y="0"
     width="111.73" height="124.72" viewBox="0, 0, 111.73, 124.72">
    <defs>
        <clipPath id="Clip_1">
            <path d="M12.341,10.964 L115.341,10.964 L115.341,69.964 L12.341,69.964 z"/>
        </clipPath>
    </defs>
    <g id="Ebene_1" transform="translate(-5.976, -8.964)">
        <g id="neos_avatar_primary">
            <path d="M95.006,8.964 L74.246,24.094 L74.246,55.734 L95.006,85.084 L95.006,8.964 z" fill="#28234C"/>
            <path
                d="M95.006,121.784 L15.216,8.964 L5.976,15.724 L5.976,133.684 L26.726,118.564 L26.726,60.144 L78.626,133.684 L101.326,133.684 L117.706,121.784 L95.006,121.784 z"
                fill="#28234C"/>
            <path
                d="M26.726,60.144 L26.726,118.564 L5.976,133.684 L28.676,133.684 L49.436,118.564 L49.436,92.314 L26.726,60.144 z"
                fill="#009FE3"/>
            <path
                d="M95.006,85.084 L95.006,8.964 L117.706,8.964 L117.706,121.784 L95.006,121.784 L15.216,8.964 L41.166,8.964 L95.006,85.084 z"
                fill="#009FE3"/>
        </g>
        <g class="eye">
            <circle class="eyeball" cx="30" cy="50" r="20" fill="white" stroke="#000"/>
            <circle class="pupil" cx="30" cy="50" r="8" fill="#000"/>
        </g>

        <g class="eye">
            <circle class="eyeball" cx="95" cy="50" r="20" fill="white" stroke="#000"/>
            <circle class="pupil" cx="95" cy="50" r="8" fill="#000"/>
        </g>
    </g>
</svg>
